<svg height="400" viewBox="0 0 400 400" width="400" xmlns="http://www.w3.org/2000/svg"><g fill-rule="evenodd"><path d="m192.9 18.276c.385.1 1.015.1 1.4 0 .385-.101.07-.183-.7-.183s-1.085.082-.7.183m-12.744 2.295c-.121.314-.14.989-.042 1.5.138.726.189.652.232-.338.029-.696.279-1.357.554-1.468.392-.158.389-.209-.013-.233-.281-.018-.611.225-.731.539m160.25 12.529c-.469.605-3.317 3.69-6.329 6.856-3.012 3.165-5.747 6.151-6.077 6.635-.33.483-1.59 1.746-2.8 2.805-1.21 1.06-3.19 2.943-4.4 4.185-1.21 1.243-5.078 4.86-8.595 8.039s-6.937 6.316-7.6 6.97c-.663.655-1.827 1.62-2.588 2.145-.76.524-2.11 1.563-3 2.307-6.299 5.275-7.952 6.6-8.732 6.999-.487.249-1.605 1.119-2.485 1.933s-1.987 1.738-2.46 2.053c-2.484 1.656-10.87 7.561-12.482 8.79-1.022.779-2.578 1.848-3.458 2.374s-3.31 2.073-5.4 3.436-4.555 2.858-5.477 3.322-2.362 1.313-3.2 1.887-1.883 1.209-2.323 1.41-1.34.71-2 1.131c-1.574 1.003-1.521 1.012-2.146-.4-.298-.673-.645-1.12-.771-.993-.126.126-.017.442.244.703 1.104 1.104.467 1.849-3.227 3.767-5.765 2.993-13.58 6.801-16.35 7.967l-2.517 1.06-.776-.941-.776-.94.256 1.054c.327 1.351.087 1.526-4.537 3.324-2.09.813-5.228 2.038-6.972 2.724-1.745.685-5.075 1.759-7.4 2.385-7.95 2.141-14.627 3.818-16.328 4.101l-1.7.282-.039-1.735-.04-1.735-.478 1.8c-.612 2.303.045 2.11-16.843 4.939-12.514 2.096-11.92 2.224-10.869-2.339.247-1.072.215-1.05-.297.2-.315.77-.587 1.989-.604 2.709-.046 1.978-3.347 2.52-22.63 3.712-3.08.19-8.57.532-12.2.759-15.699.982-49.842.05-63.8-1.742-2.64-.339-7.05-.805-9.8-1.037-2.75-.231-6.98-.768-9.4-1.193-2.42-.424-7.01-1.15-10.2-1.611-3.19-.462-7.139-1.19-8.775-1.618-5.754-1.506-7.244-.741-3.625 1.859 1.1.79 2.001 1.555 2.001 1.7.001.144 1.126 1.162 2.499 2.262 2.299 1.842 4.366 3.628 9.7 8.383 2.196 1.958 6.479 5.657 10.324 8.916 1.362 1.155 3.376 2.902 4.476 3.883s2.81 2.46 3.8 3.286c.99.827 2.982 2.59 4.426 3.918 1.444 1.327 4.657 4.124 7.141 6.214s4.902 4.195 5.375 4.678c.472.483 1.518 1.383 2.325 2 2.177 1.666 8.119 6.74 15.333 13.097 3.52 3.101 7.03 6.112 7.8 6.69.77.579 2.03 1.632 2.8 2.341s2.48 2.191 3.8 3.293c3.084 2.576 8.272 7.079 16.245 14.101 8.309 7.318 13.331 11.65 19.703 17 5.5 4.617 5.486 4.532 2.026 12.758-1.444 3.433-3.075 7.322-3.623 8.642-.549 1.32-1.373 3.3-1.833 4.4-.459 1.1-1.097 2.63-1.416 3.4-.32.77-.913 2.12-1.318 3s-1.117 2.59-1.581 3.8-1.463 3.686-2.219 5.502-2.021 4.876-2.811 6.8c-1.268 3.087-3.253 7.78-6.981 16.498-3.081 7.205-4.392 10.432-4.392 10.81 0 .229-.472 1.347-1.048 2.485-.943 1.861-1.826 3.929-6.362 14.905-.727 1.76-2.344 5.63-3.592 8.6-1.249 2.97-2.596 6.3-2.995 7.4-.842 2.325-2.107 5.325-3.205 7.6-.646 1.338-2.127 4.826-3.567 8.4-1.356 3.365-4.406 10.611-5.684 13.501-.851 1.925-1.547 3.686-1.547 3.913s-.431 1.264-.959 2.305c-.911 1.798-1.19 2.827-1.087 4.008.117 1.34 2.515-.684 11.93-10.072 5.547-5.53 10.274-10.235 10.504-10.455 2.182-2.082 34.305-35.015 44.612-45.737 2.64-2.746 5.7-5.928 6.8-7.071 10.285-10.686 16.83-17.586 18.583-19.592 1.154-1.32 3.204-3.499 4.557-4.841 1.353-1.343 3.63-3.738 5.06-5.322s3.68-4.001 5-5.37c1.32-1.37 5.076-5.455 8.346-9.078 3.27-3.624 7.61-8.389 9.645-10.589 2.034-2.2 4.669-5.116 5.854-6.481s5.305-6.016 9.155-10.336c10.567-11.858 23.816-27.699 27.53-32.915 1.329-1.866 3.932-5.375 7.291-9.826 3.835-5.084 13.715-19.394 16.184-23.442.469-.77 1.736-2.75 2.816-4.4 2.026-3.099 4.118-6.551 6.906-11.4 4.726-8.217 7.237-12.072 8.357-12.83.993-.672 1.116-.901.643-1.2-.584-.37.289-2.117 6.283-12.57.82-1.43 2.341-4.22 3.381-6.2 2.351-4.48 2.742-4.92 4.551-5.111l1.458-.155-1.5-.067c-1.853-.083-2.062.698 1.742-6.517 1.783-3.383 4.668-9.12 6.411-12.75s3.535-7.23 3.983-8 1.169-2.21 1.604-3.2 1.137-2.52 1.561-3.4c2.405-4.99 8.247-18.036 9.475-21.159.788-2.002 2.203-5.171 3.144-7.041.942-1.87 1.926-4.21 2.188-5.2s.764-2.34 1.117-3c1.077-2.017 2.441-5.363 5.507-13.508 1.174-3.119-.318-4.455-2.226-1.992m-126.378 3.5c0 .22.258.85.572 1.4s.572.82.572.6-.258-.85-.572-1.4-.572-.82-.572-.6m-15.483 24.802c.332.332.721.975.865 1.431.145.455.35.74.456.634.3-.3-1.035-2.667-1.505-2.667-.23 0-.147.271.184.602m4.283 8.398c0 .22.258.85.572 1.4s.572.82.572.6-.258-.85-.572-1.4-.572-.82-.572-.6m-32.606 4.022c-.15.803-.194 1.54-.096 1.638.098.097.301-.479.452-1.282.15-.803.194-1.54.096-1.638-.098-.097-.301.479-.452 1.282m-2.022 10.978c-.152.691-.193 1.341-.091 1.442.102.102.3-.389.441-1.092.333-1.667.01-1.99-.35-.35m25.255 4.655c-.142 1.031-.181 1.953-.086 2.047.094.094.296-.663.449-1.684.153-1.02.192-1.942.086-2.047-.106-.106-.308.652-.449 1.684m52.345 11.345c.341.66.711 1.2.821 1.2s-.08-.54-.421-1.2-.711-1.2-.821-1.2.08.54.421 1.2m128.9 9.212c.495.199.9.578.9.842s.116.364.257.222c.39-.39-.666-1.479-1.406-1.451-.441.018-.36.143.249.387m-6.6.264c.385.1 1.015.1 1.4 0 .385-.101.07-.183-.7-.183s-1.085.082-.7.183m-5.6.8c.385.1 1.015.1 1.4 0 .385-.101.07-.183-.7-.183s-1.085.082-.7.183m-172.807 3.724c0 .77.082 1.085.183.7.1-.385.1-1.015 0-1.4-.101-.385-.183-.07-.183.7m149.607-.524c.385.1 1.015.1 1.4 0 .385-.101.07-.183-.7-.183s-1.085.082-.7.183m-5.6.8c.385.1 1.015.1 1.4 0 .385-.101.07-.183-.7-.183s-1.085.082-.7.183m43.201 3.924c.004.88.086 1.193.182.695.096-.497.092-1.217-.008-1.6-.1-.382-.179.025-.174.905m-66.401-.724c.385.1 1.015.1 1.4 0 .385-.101.07-.183-.7-.183s-1.085.082-.7.183m67.193 6.124c0 .77.082 1.085.183.7.1-.385.1-1.015 0-1.4-.101-.385-.183-.07-.183.7m-36.896 19.9-8.997 9.1 9.1-8.997c8.456-8.359 9.28-9.203 8.997-9.203-.057 0-4.152 4.095-9.1 9.1m35.591-4-2.588 2.7 2.7-2.588c1.485-1.424 2.7-2.639 2.7-2.7 0-.295-.407.08-2.812 2.588m-10.795 11.2-4.593 4.7 4.7-4.593c4.366-4.267 4.882-4.807 4.593-4.807-.058 0-2.173 2.115-4.7 4.7m-12.793 13.1c-1.639 1.65-2.89 3-2.78 3s1.541-1.35 3.18-3 2.89-3 2.78-3-1.541 1.35-3.18 3m-13.009 13.5-3.191 3.3 3.3-3.191c3.065-2.963 3.482-3.409 3.191-3.409-.061 0-1.546 1.485-3.3 3.3m-44.593 12.2-12.598 12.7 12.7-12.598c11.803-11.707 12.88-12.802 12.598-12.802-.057 0-5.772 5.715-12.7 12.7m32.594.2-3.992 4.1 4.1-3.992c2.255-2.196 4.1-4.041 4.1-4.1 0-.29-.499.184-4.208 3.992m-12.4 12.8-3.592 3.7 3.7-3.592c2.035-1.975 3.7-3.64 3.7-3.7 0-.29-.472.156-3.808 3.592m-10.805 11.2-2.387 2.5 2.5-2.387c1.375-1.314 2.5-2.439 2.5-2.5 0-.296-.395.065-2.613 2.387m-38.528 5.3c-.018.44.231 1.149.554 1.576.323.428.587.599.587.38 0-.218-.163-.567-.361-.776-.199-.209-.448-.74-.554-1.18l-.192-.8zm-31.459 46.603c-.515.223-.087.264 1.2.115 1.1-.127 2.075-.295 2.167-.374.347-.299-2.603-.072-3.367.259m-3.7.673c.385.1 1.015.1 1.4 0 .385-.101.07-.183-.7-.183s-1.085.082-.7.183m-8.9 1.324c-.792.254-.833.32-.2.32.44 0 1.25-.144 1.8-.32.792-.254.833-.32.2-.32-.44 0-1.25.144-1.8.32m34.8.02c1.387.941 2.178 1.215 1.2.416-.55-.45-1.18-.819-1.4-.821s-.13.181.2.405m32.028 3.78c0 .22.258.85.572 1.4s.572.82.572.6-.258-.85-.572-1.4-.572-.82-.572-.6m43.2 6.8c0 .22.258.85.572 1.4s.572.82.572.6-.258-.85-.572-1.4-.572-.82-.572-.6m-97.028 2.007c.44.359 1.16.828 1.6 1.044l.8.393-.8-.651c-.44-.359-1.16-.828-1.6-1.044l-.8-.393zm43-.428c0 .11.54.48 1.2.821s1.2.531 1.2.421-.54-.48-1.2-.821-1.2-.531-1.2-.421m4.8 2.8c0 .11.54.48 1.2.821s1.2.531 1.2.421-.54-.48-1.2-.821-1.2-.531-1.2-.421m54.028 5.621c0 .22.258.85.572 1.4s.572.82.572.6-.258-.85-.572-1.4-.572-.82-.572-.6m-40.228 29.965c.66.567 1.365 1.032 1.567 1.033.434.002.429-.002-1.367-1.161l-1.4-.903zm3.2 2c.66.567 1.365 1.032 1.567 1.033.434.002.429-.002-1.367-1.161l-1.4-.903zm51.5 4.111c.385.1 1.015.1 1.4 0 .385-.101.07-.183-.7-.183s-1.085.082-.7.183m-4.8.8c.385.1 1.015.1 1.4 0 .385-.101.07-.183-.7-.183s-1.085.082-.7.183" fill="#fbd659"/><path d="m195.4 18.055c-7.312 1.018-11.824 1.712-14.048 2.162-.69.14-.896.562-1.108 2.278-.143 1.158-.438 2.915-.655 3.905-.218.99-.847 4.23-1.398 7.2-.552 2.97-1.447 7.74-1.989 10.6s-1.707 9.07-2.589 13.8-1.78 9.5-1.997 10.6c-1.019 5.184-1.609 8.286-2.205 11.6-.356 1.98-.824 4.5-1.041 5.6-.983 4.988-1.248 6.395-2.378 12.6-.661 3.63-1.365 7.32-1.565 8.2-.463 2.047-1.069 5.16-1.791 9.2-1.013 5.673-2.647 14.342-3.104 16.466-.584 2.72-.351 3.251 1.331 3.033 1.465-.189 16.932-2.748 20.137-3.331 6.361-1.158 6.227-1.036 6.987-6.368.493-3.459 2.984-19.756 4.036-26.4.226-1.43.577-3.77.78-5.2.202-1.43.649-4.4.992-6.6.66-4.228 1.603-10.401 2.2-14.4 1.693-11.337 1.864-12.2 2.417-12.2.305 0 5.588 10.38 5.588 10.979 0 .072.914 2.086 2.031 4.476s2.493 5.335 3.056 6.545c.564 1.21 1.788 3.82 2.72 5.8.933 1.98 2.283 4.86 3 6.4.718 1.54 2.019 4.33 2.892 6.2s2.04 4.39 2.594 5.6c3.023 6.608 5.269 11.129 5.646 11.362.957.592 22.861-10.046 22.861-11.103 0-.433-8.406-17.441-34.431-69.661-5.263-10.561-9.569-19.405-9.569-19.653 0-.849-1.405-.803-9.4.31m172.2 92.381c-6.083.858-9.885 1.418-13.4 1.972-2.59.408-15.662 2.208-20.581 2.833-3.176.403-5.532.734-12.419 1.742-3.783.553-10.595 1.499-15.083 2.094-2.054.272-2.347.59-4.726 5.123-1.04 1.98-2.561 4.77-3.381 6.2-7.883 13.747-7.763 13.129-2.362 12.232 4.721-.785 13.401-2.162 16.552-2.627 1.32-.194 4.65-.723 7.4-1.174s6.8-1.094 9-1.43c2.2-.335 4.99-.786 6.2-1.003 6.513-1.163 15.283-2.449 15.465-2.267.454.455-1.247 2.243-21.493 22.598-67.363 67.724-62.999 63.202-62.036 64.291.185.209.578 1.01.875 1.78s1.152 2.75 1.901 4.4 1.595 3.54 1.879 4.2.897 2.054 1.364 3.098c.466 1.044 1.499 3.474 2.295 5.4s2.056 4.82 2.799 6.431 1.351 3.001 1.351 3.088c0 .088.434 1.11.965 2.271.531 1.162 2.256 5.079 3.832 8.704 1.577 3.626 3.194 7.316 3.594 8.2.399.885 1.195 2.729 1.769 4.098.573 1.37 1.473 3.44 2 4.6.527 1.161 1.448 3.28 2.045 4.71 1.661 3.973 2.605 6.088 3.274 7.336 1.286 2.398-1.224 1.752-6.679-1.722-.33-.21-1.77-1.046-3.2-1.858s-5.3-3.049-8.6-4.973c-14.77-8.608-24.569-14.221-26.6-15.236l-2.2-1.1-9 1.354c-10.222 1.538-13.743 2.089-16.6 2.597-1.1.196-2.933.472-4.074.613-2.993.371-2.684.674 6.399 6.283 16.173 9.986 29.369 18.116 33.475 20.621 2.31 1.409 4.83 2.967 5.6 3.462s4.64 2.885 8.6 5.311c6.949 4.257 10.257 6.293 30.6 18.836 5.17 3.188 9.519 5.979 9.664 6.202.346.531 2.427.442 7.336-.316 7.359-1.136 16.394-2.481 27.3-4.064 5.901-.856 5.775.071 1.252-9.238-9.987-20.557-14.255-29.362-19.151-39.508-1.486-3.08-4.456-9.2-6.6-13.6-2.143-4.4-5.115-10.52-6.604-13.6s-4.37-9.02-6.402-13.2c-2.033-4.18-4.918-10.119-6.411-13.197-1.598-3.295-2.595-5.812-2.422-6.12.161-.288 2.179-2.449 4.485-4.803 2.305-2.354 10.109-10.4 17.341-17.88s15.953-16.482 19.38-20.004c3.428-3.522 8.842-9.104 12.032-12.405 3.19-3.3 8.672-8.968 12.182-12.596 3.511-3.627 7.549-7.803 8.974-9.279l2.591-2.684-.502-3.916c-.897-7.004-2.06-15.072-2.457-17.047-.213-1.061-.388-2.602-.388-3.423 0-3.154-1.031-3.45-8.4-2.41" fill="#2a394a"/></g></svg>